<?xml version="1.0" encoding="utf-8"?>
<!-- Generator: Adobe Illustrator 24.0.1, SVG Export Plug-In . SVG Version: 6.00 Build 0)  -->
<svg version="1.1" id="Layer_1" xmlns="http://www.w3.org/2000/svg" xmlns:xlink="http://www.w3.org/1999/xlink" x="0px" y="0px"
	 viewBox="0 0 225 65" style="enable-background:new 0 0 225 65;" xml:space="preserve">
<style type="text/css">
	.st0{fill:#66B821;}
	.st1{fill:#0D6EFD;}
	.st2{fill:url(#_Path__1_);}
	.st3{fill:url(#_Path_2_1_);}
	.st4{fill:#FFFFFF;}
	.st5{opacity:0.2;fill:#FFFFFF;}
	.st6{fill:#999999;}
</style>
<title>header_logo</title>
<g id="_Group_">
	<g id="_Group_2">
		<path class="st0" d="M41.2,8.3c-7,14.1-10.5,29.2-15.1,44.6c-0.4,1.5-0.9,3.1-1.6,4.5c2.5,0.7,5.1,1.1,7.7,1.1
			c14.4,0.1,26.3-11.4,26.4-25.9l0,0C58.6,21.6,51.6,11.9,41.2,8.3z"/>
		<path class="st0" d="M45.3,2.3l-1.9,6.8c1,0.5,1.8,0.9,2.8,1.5L45.3,2.3z"/>
		<path class="st1" d="M32.2,6.7C17.9,6.4,6,17.8,5.7,32.2c0,0.1,0,0.2,0,0.3C5.8,44,13.5,54.1,24.5,57.3c0.6-1.5,1.2-3,1.6-4.5
			c4.6-15.4,8.1-30.5,15.1-44.5C38.4,7.3,35.3,6.7,32.2,6.7z"/>
		<polygon class="st1" points="17.8,62.7 19.8,55.4 17.8,54.3 		"/>
		
			<linearGradient id="_Path__1_" gradientUnits="userSpaceOnUse" x1="33.5643" y1="-680.093" x2="36.4644" y2="-665.4229" gradientTransform="matrix(1 0 0 -1 0 -655)">
			<stop  offset="0" style="stop-color:#FFFFFF;stop-opacity:0"/>
			<stop  offset="0.12" style="stop-color:#FFFFFF;stop-opacity:0.12"/>
			<stop  offset="1" style="stop-color:#FFFFFF"/>
		</linearGradient>
		<ellipse id="_Path_" class="st2" cx="32.1" cy="32.5" rx="22.1" ry="21.7"/>
		
			<linearGradient id="_Path_2_1_" gradientUnits="userSpaceOnUse" x1="32.6109" y1="-685.689" x2="23.5109" y2="-717.949" gradientTransform="matrix(1 0 0 -1 0 -655)">
			<stop  offset="0" style="stop-color:#FFFFFF;stop-opacity:0"/>
			<stop  offset="1" style="stop-color:#020202"/>
		</linearGradient>
		<ellipse id="_Path_2" class="st3" cx="32.1" cy="32.5" rx="22.1" ry="21.7"/>
		<polygon id="_Path_3" class="st4" points="15,21.4 13.3,32.6 28.8,23.3 17.8,62.7 48.7,44.2 50.9,32.6 34.5,41.8 45.3,2.3 		"/>
		<polygon id="_Path_4" class="st4" points="15,21.4 13.3,32.6 28.8,23.3 17.8,62.7 48.7,44.2 50.9,32.6 34.5,41.8 45.3,2.3 		"/>
	</g>
	<g id="_Group_3">
		<path class="st5" d="M215.8,56.1H73.1c-1.3,0-2.4-1.1-2.4-2.4V41.8c0-1.3,1.1-2.4,2.4-2.4h142.7c1.3,0,2.4,1.1,2.4,2.4v11.9
			C218.2,55.1,217.1,56.1,215.8,56.1z"/>
		<path id="_Path_10" class="st1" d="M71.2,11.7h15.9l-9.5,21.1h8.7v4.6h-16l9.3-20.8h-8.4V11.7z"/>
		<path id="_Path_11" class="st1" d="M112.5,18.4h4.9v2.2c0.8-0.9,1.7-1.6,2.8-2c1.1-0.4,2.2-0.6,3.3-0.6c1.2,0,2.3,0.3,3.3,0.9
			s1.8,1.5,2.3,2.5c0.7-1,1.7-1.9,2.8-2.5c2.3-1.2,5.1-1.2,7.4,0c1,0.6,1.8,1.4,2.3,2.5c0.5,1.6,0.7,3.2,0.6,4.9v11.1h-5v-9.6
			c0-2.2-0.3-3.7-0.9-4.4c-0.6-0.7-1.5-1.1-2.5-1.1c-0.8,0-1.6,0.2-2.3,0.7s-1.2,1.2-1.5,1.9c-0.3,1.3-0.5,2.7-0.4,4v8.6h-5v-9.2
			c0.1-1.2-0.1-2.5-0.4-3.7c-0.2-0.7-0.5-1.3-1.1-1.7c-0.5-0.4-1.1-0.6-1.8-0.6c-0.8,0-1.6,0.2-2.3,0.7c-0.7,0.5-1.2,1.2-1.5,2
			c-0.3,1.3-0.5,2.7-0.4,4v8.5h-4.9v-19h0.1C112.5,18.5,112.5,18.4,112.5,18.4z"/>
		<path id="_Path_12" class="st0" d="M146,11.7h15.9l-9.4,21.1h8.7v4.6h-16l9.3-20.8H146V11.7z"/>
		<path id="_Path_13" class="st0" d="M188.5,18.4h4.9v2.2c0.8-0.9,1.7-1.6,2.8-2s2.2-0.6,3.3-0.6c1.2,0,2.3,0.3,3.3,0.9
			s1.8,1.5,2.3,2.5c0.7-1,1.7-1.9,2.8-2.5c2.3-1.2,5.1-1.2,7.4,0c1,0.6,1.8,1.4,2.3,2.5c0.5,1.6,0.7,3.2,0.6,4.9v11.1h-5v-9.6
			c0-2.2-0.3-3.7-0.9-4.4c-0.6-0.7-1.5-1.2-2.5-1.1c-0.8,0-1.6,0.2-2.3,0.7s-1.2,1.2-1.5,1.9c-0.3,1.3-0.5,2.7-0.4,4v8.6h-5v-9.2
			c0.1-1.2-0.1-2.5-0.4-3.7c-0.2-0.7-0.5-1.3-1.1-1.7c-0.5-0.4-1.1-0.6-1.8-0.6c-0.8,0-1.6,0.2-2.3,0.7s-1.2,1.2-1.5,2
			c-0.3,1.3-0.5,2.7-0.4,4v8.5h-4.9v-19h0.1L188.5,18.4L188.5,18.4z"/>
		<path id="_Compound_Path_4" class="st1" d="M102.6,18.4v1c-1.4-0.8-3-1.2-4.6-1.2c-5.3,0-9.6,4.3-9.6,9.6s4.3,9.6,9.6,9.6
			c1.6,0,3.2-0.4,4.6-1.2v1.3h5V18.4H102.6z M98.1,32.9c-2.9,0-5.2-2.3-5.3-5.1c0-2.9,2.4-5.1,5.2-5.1c0,0,0,0,0.1,0
			c1.9,0,3.7,1.1,4.6,2.8c0.4,0.7,0.5,1.5,0.5,2.3s-0.1,1.6-0.5,2.3C101.7,31.8,100,32.9,98.1,32.9z"/>
		<path id="_Compound_Path_5" class="st0" d="M178.7,18.4v1c-1.4-0.8-3-1.2-4.6-1.2c-5.3,0-9.6,4.3-9.6,9.6s4.3,9.6,9.6,9.6
			c1.6,0,3.2-0.4,4.6-1.2v1.3h4.9V18.4H178.7z M174,32.9c-2.9,0-5.2-2.3-5.3-5.1c0-2.9,2.4-5.1,5.2-5.1c0,0,0,0,0.1,0
			c1.9,0,3.7,1.1,4.6,2.8c0.4,0.7,0.5,1.5,0.5,2.3s-0.1,1.6-0.5,2.3C177.7,31.8,175.9,32.9,174,32.9z"/>
		<g>
			<path class="st6" d="M74.6,53.4c-0.7-0.5-1-1.3-1-2.3v-6.6c0-1,0.3-1.8,1-2.3c0.7-0.5,1.7-0.8,3-0.8c1.3,0,2.3,0.3,3,0.8
				c0.7,0.5,1,1.3,1,2.3v1.1h-2.6v-1.2c0-0.8-0.5-1.2-1.4-1.2c-0.9,0-1.4,0.4-1.4,1.2v6.9c0,0.8,0.5,1.2,1.4,1.2
				c0.9,0,1.4-0.4,1.4-1.2v-2.5h-1.4v-1.8h3.9V51c0,1-0.3,1.8-1,2.3c-0.7,0.5-1.7,0.8-3,0.8C76.3,54.2,75.3,53.9,74.6,53.4z"/>
			<path class="st6" d="M92.5,41.5h4c1.4,0,2.4,0.2,3.1,0.7c0.6,0.5,1,1.2,1,2.2v0.8c0,1.3-0.6,2.1-1.8,2.5v0
				c0.7,0.1,1.1,0.4,1.4,0.9c0.3,0.4,0.4,1,0.4,1.8v2.2c0,0.4,0,0.6,0,0.9c0,0.2,0.1,0.4,0.2,0.7h-2.8c-0.1-0.2-0.2-0.4-0.2-0.6
				c0-0.2,0-0.5,0-1v-2.3c0-0.6-0.1-1-0.4-1.2c-0.3-0.2-0.7-0.3-1.3-0.3h-0.9V54h-2.7V41.5z M96.2,46.9c0.5,0,0.9-0.1,1.2-0.3
				s0.4-0.5,0.4-1v-1c0-0.5-0.1-0.8-0.3-1c-0.2-0.2-0.6-0.3-1-0.3h-1.2v3.6H96.2z"/>
			<path class="st6" d="M113.9,41.5h3.7l2.8,12.5h-2.7l-0.5-2.5v0h-3.1l-0.5,2.5h-2.5L113.9,41.5z M116.9,49.9l-1.2-6.2h0l-1.2,6.2
				H116.9z"/>
			<path class="st6" d="M130.9,41.5h4c1.3,0,2.4,0.3,3,0.8c0.7,0.5,1,1.3,1,2.3v1.2c0,1-0.3,1.8-1,2.3c-0.7,0.5-1.7,0.8-3,0.8h-1.3
				V54h-2.7V41.5z M134.9,47.1c0.4,0,0.8-0.1,1-0.3c0.2-0.2,0.3-0.5,0.3-0.9v-1.5c0-0.4-0.1-0.7-0.3-0.9c-0.2-0.2-0.6-0.3-1-0.3
				h-1.3v3.9H134.9z"/>
			<path class="st6" d="M149.8,41.5h2.7v5.1h2.9v-5.1h2.7V54h-2.7v-5.6h-2.9V54h-2.7V41.5z"/>
			<path class="st6" d="M171.7,41.5h2.7V54h-2.7V41.5z"/>
			<path class="st6" d="M189.2,53.4c-0.7-0.5-1-1.3-1-2.3v-6.7c0-1,0.3-1.7,1-2.3c0.7-0.5,1.7-0.8,3-0.8c1.3,0,2.3,0.3,3,0.8
				c0.7,0.5,1,1.3,1,2.3v1.3h-2.6v-1.5c0-0.8-0.5-1.2-1.4-1.2s-1.4,0.4-1.4,1.2v7c0,0.8,0.5,1.1,1.4,1.1s1.4-0.4,1.4-1.1v-1.9h2.6
				v1.8c0,1-0.3,1.7-1,2.3c-0.7,0.5-1.7,0.8-3,0.8C190.9,54.2,189.9,53.9,189.2,53.4z"/>
			<path class="st6" d="M208.3,53.4c-0.7-0.5-1-1.3-1-2.3v-0.7h2.6v0.9c0,0.8,0.5,1.2,1.4,1.2c0.5,0,0.8-0.1,1-0.3
				c0.2-0.2,0.4-0.5,0.4-1c0-0.5-0.2-1-0.5-1.4c-0.3-0.4-0.9-0.9-1.8-1.4c-1.1-0.7-1.9-1.4-2.3-1.9c-0.4-0.6-0.7-1.2-0.7-2
				c0-1,0.3-1.8,1-2.3c0.7-0.5,1.7-0.8,3-0.8c1.3,0,2.3,0.3,2.9,0.8c0.7,0.5,1,1.3,1,2.3V45h-2.6v-0.6c0-0.4-0.1-0.7-0.3-0.9
				c-0.2-0.2-0.6-0.3-1-0.3c-0.9,0-1.4,0.4-1.4,1.2c0,0.5,0.2,0.9,0.5,1.3c0.3,0.4,1,0.9,1.8,1.4c1.1,0.7,1.9,1.4,2.3,2
				c0.4,0.6,0.6,1.3,0.6,2.1c0,1-0.3,1.8-1,2.4c-0.7,0.5-1.7,0.8-3,0.8C209.9,54.2,208.9,53.9,208.3,53.4z"/>
		</g>
	</g>
</g>
</svg>
